<svg width="16" height="16" viewBox="0 0 16 16" fill="none" xmlns="http://www.w3.org/2000/svg">
<path d="M2.02618 16C1.92202 15.975 1.81368 15.9542 1.70952 15.9292C0.651183 15.6583 -0.06965 14.6583 0.00535 13.5583C0.0761833 12.4875 0.909517 11.6042 1.98035 11.4625C3.10535 11.3125 4.16368 12.0167 4.46785 13.1125C4.48035 13.1542 4.49285 13.1917 4.50952 13.25C4.55535 13.25 4.60535 13.25 4.65535 13.25C6.03452 13.25 7.40952 13.25 8.78868 13.25C8.89285 13.25 8.94702 13.225 8.99702 13.1208C9.25952 12.5667 9.70535 12.2625 10.3179 12.2625C10.9262 12.2625 11.3762 12.5583 11.6429 13.1125C11.6929 13.2167 11.7429 13.2542 11.8595 13.2542C12.3262 13.2458 12.797 13.2542 13.2637 13.25C14.2845 13.2375 15.0804 12.3958 15.0387 11.375C15.0054 10.4875 14.272 9.7125 13.3845 9.6875C12.272 9.65833 11.1595 9.68333 10.047 9.66667C9.81785 9.6625 9.69285 9.7125 9.56785 9.93333C9.28452 10.45 8.80952 10.6958 8.21785 10.6542C7.65118 10.6167 7.24702 10.3167 7.00118 9.80833C6.95118 9.7 6.89702 9.66667 6.78035 9.67083C5.98868 9.675 5.20118 9.675 4.40952 9.67083C3.44285 9.66667 2.65535 9.07083 2.43868 8.1875C2.12618 6.92083 3.06368 5.72917 4.38035 5.72917C6.79285 5.725 9.20535 5.72917 11.6137 5.72917C11.6762 5.72917 11.7387 5.72917 11.8387 5.72917C11.7595 5.63333 11.7012 5.5625 11.647 5.49167C11.2637 5.01667 10.9262 4.51667 10.6304 3.97917C9.79702 2.44583 10.7387 0.733333 12.0637 0.220833C12.3179 0.120833 12.5887 0.075 12.8554 0C13.0512 0 13.2512 0 13.447 0C13.4762 0.00833333 13.5054 0.025 13.5345 0.0291667C14.6762 0.1875 15.6012 1.02083 15.8845 2.14167C15.9179 2.27083 15.9429 2.4 15.972 2.53333C15.972 2.7125 15.972 2.8875 15.972 3.06667C15.7595 4.0125 15.2137 4.775 14.622 5.5125C14.4387 5.74167 14.2345 5.94583 14.0554 6.175C13.7678 6.54167 13.4054 6.67917 12.9429 6.675C10.122 6.6625 7.30118 6.67083 4.47618 6.67083C4.39285 6.67083 4.30952 6.67083 4.22618 6.68333C3.59702 6.75833 3.19285 7.34583 3.34285 7.9625C3.45952 8.43333 3.87202 8.7375 4.41368 8.74167C5.19702 8.74583 5.98452 8.74167 6.76785 8.74583C6.88452 8.74583 6.94285 8.71667 7.00118 8.6C7.26785 8.05833 7.70535 7.75833 8.31368 7.75417C8.92202 7.75 9.36368 8.04583 9.63452 8.5875C9.69702 8.7125 9.75952 8.74583 9.88868 8.74583C11.0012 8.74167 12.1137 8.7375 13.2262 8.74583C14.522 8.75 15.597 9.59167 15.9012 10.8333C15.9304 10.9542 15.9512 11.075 15.9762 11.1958C15.9762 11.3833 15.9762 11.5708 15.9762 11.7583C15.9679 11.775 15.9554 11.7958 15.9512 11.8125C15.8137 13.0625 14.7012 14.2333 13.147 14.1958C12.722 14.1875 12.2929 14.2 11.8679 14.1917C11.747 14.1875 11.6887 14.225 11.6345 14.3375C11.3679 14.8917 10.9179 15.1875 10.3095 15.1833C9.70535 15.1792 9.26368 14.8792 8.99702 14.3333C8.94702 14.2292 8.90118 14.1917 8.78035 14.1917C7.40952 14.1958 6.03868 14.1958 4.66368 14.1958C4.61368 14.1958 4.55952 14.1958 4.50952 14.1958C4.49285 14.25 4.47618 14.2958 4.46368 14.3375C4.22202 15.125 3.70535 15.65 2.91368 15.9042C2.78452 15.9458 2.65535 15.9667 2.52202 16C2.35952 16 2.19285 16 2.02618 16ZM13.1387 0.9375C11.8262 0.916667 10.747 2.3875 11.4887 3.625C11.9304 4.3625 12.4512 5.02917 13.0262 5.6625C13.1054 5.75 13.1762 5.74167 13.247 5.65833C13.372 5.51667 13.5012 5.38333 13.622 5.2375C14.1054 4.66667 14.572 4.07917 14.8845 3.39167C14.9887 3.16667 15.0512 2.93333 15.0262 2.68333C14.9429 1.7 14.1179 0.9375 13.1387 0.9375ZM2.26785 15.0625C3.00535 15.0667 3.61368 14.4625 3.61368 13.725C3.61785 12.9875 3.01368 12.3792 2.28035 12.375C1.54285 12.3708 0.938683 12.975 0.934517 13.7125C0.93035 14.4542 1.53035 15.0583 2.26785 15.0625ZM10.8345 13.7125C10.8304 13.4208 10.5887 13.1875 10.3054 13.1958C10.022 13.2042 9.79285 13.4375 9.79285 13.7167C9.79285 14.0042 10.0304 14.2458 10.3179 14.2417C10.6054 14.2417 10.8387 14.0042 10.8345 13.7125ZM8.83035 9.2C8.83035 8.90833 8.59702 8.68333 8.30535 8.68333C8.01368 8.6875 7.78868 8.92083 7.79285 9.2125C7.79702 9.49583 8.02618 9.72083 8.31368 9.72083C8.60535 9.725 8.83452 9.49167 8.83035 9.2Z" fill="#D8A023"/>
<path d="M13.1345 2.3999C13.3929 2.3999 13.597 2.61657 13.597 2.88324C13.597 3.12074 13.3762 3.33324 13.1304 3.33324C12.8804 3.33324 12.6637 3.10407 12.6637 2.84574C12.6679 2.6124 12.8887 2.3999 13.1345 2.3999Z" fill="#D8A023"/>
</svg>
